<?xml version="1.0" encoding="UTF-8"?>
<svg id="Layer_2" xmlns="http://www.w3.org/2000/svg" xmlns:xlink="http://www.w3.org/1999/xlink" viewBox="0 0 1139.26 201.22">
  <defs>
    <style>
      .cls-1 {
        fill: url(#linear-gradient-13);
      }

      .cls-2 {
        fill: url(#linear-gradient-10);
      }

      .cls-3 {
        fill: url(#linear-gradient-12);
      }

      .cls-4, .cls-5 {
        fill: #ea2228;
      }

      .cls-6 {
        fill: url(#linear-gradient-4);
      }

      .cls-7 {
        fill: url(#linear-gradient-3);
      }

      .cls-8 {
        fill: url(#linear-gradient-5);
      }

      .cls-9 {
        fill: url(#linear-gradient-8);
      }

      .cls-10 {
        fill: url(#linear-gradient);
        stroke: url(#linear-gradient-2);
        stroke-miterlimit: 10;
      }

      .cls-11 {
        fill: #6dbb45;
      }

      .cls-12 {
        fill: url(#linear-gradient-14);
      }

      .cls-13 {
        fill: #4994fd;
      }

      .cls-14 {
        fill: url(#linear-gradient-7);
      }

      .cls-15 {
        fill: url(#linear-gradient-9);
      }

      .cls-16 {
        fill: url(#linear-gradient-11);
      }

      .cls-17 {
        fill: url(#linear-gradient-6);
      }

      .cls-5 {
        isolation: isolate;
        opacity: .7;
      }
    </style>
    <linearGradient id="linear-gradient" x1="5.09" y1="354.72" x2="24.43" y2="354.72" gradientTransform="translate(0 425.54) scale(1 -1)" gradientUnits="userSpaceOnUse">
      <stop offset="0" stop-color="#ffcc12"/>
      <stop offset="1" stop-color="#ffc912"/>
    </linearGradient>
    <linearGradient id="linear-gradient-2" x1="5.09" y1="70.82" x2="24.43" y2="70.82" gradientUnits="userSpaceOnUse">
      <stop offset="0" stop-color="#ffcc12"/>
      <stop offset="1" stop-color="#ffc912"/>
    </linearGradient>
    <linearGradient id="linear-gradient-3" x1="141.23" y1="382.81" x2="160.57" y2="382.81" gradientTransform="translate(0 425.54) scale(1 -1)" xlink:href="#linear-gradient-2"/>
    <linearGradient id="linear-gradient-4" x1="53.53" y1="259.14" x2="53.53" y2="224.32" gradientTransform="translate(0 425.54) scale(1 -1)" xlink:href="#linear-gradient-2"/>
    <linearGradient id="linear-gradient-5" x1="231.58" y1="253.42" x2="231.58" y2="224.37" gradientTransform="translate(0 425.54) scale(1 -1)" xlink:href="#linear-gradient-2"/>
    <linearGradient id="linear-gradient-6" x1="148.11" y1="328.41" x2="166.47" y2="328.41" gradientTransform="translate(0 425.54) scale(1 -1)" xlink:href="#linear-gradient-2"/>
    <linearGradient id="linear-gradient-7" x1="84.03" y1="421.14" x2="84.03" y2="364.77" gradientTransform="translate(0 425.54) scale(1 -1)" xlink:href="#linear-gradient-2"/>
    <linearGradient id="linear-gradient-8" x1="14.12" y1="285.53" x2="31.47" y2="285.53" gradientTransform="translate(0 425.54) scale(1 -1)" xlink:href="#linear-gradient-2"/>
    <linearGradient id="linear-gradient-9" x1="305.06" y1="251.66" x2="305.06" y2="245.44" gradientTransform="translate(0 425.54) scale(1 -1)" xlink:href="#linear-gradient-2"/>
    <linearGradient id="linear-gradient-10" x1="320.96" y1="253.86" x2="320.96" y2="247.64" gradientTransform="translate(0 425.54) scale(1 -1)" xlink:href="#linear-gradient-2"/>
    <linearGradient id="linear-gradient-11" x1="336.94" y1="255.09" x2="336.94" y2="248.86" gradientTransform="translate(0 425.54) scale(1 -1)" xlink:href="#linear-gradient-2"/>
    <linearGradient id="linear-gradient-12" x1="148.96" y1="-92.52" x2="148.96" y2="-96.99" gradientTransform="translate(126.66 104.81) rotate(-6.27) scale(1.14 -1)" xlink:href="#linear-gradient-2"/>
    <linearGradient id="linear-gradient-13" x1="326.26" y1="-128.57" x2="326.26" y2="-133.04" gradientTransform="translate(-45.45 92.23) rotate(-6.93) scale(1.08 -1)" xlink:href="#linear-gradient-2"/>
    <linearGradient id="linear-gradient-14" x1="220.01" y1="77.71" x2="220.01" y2="73.24" gradientTransform="translate(103.71 266.79) rotate(-3.17) scale(1.08 -1)" xlink:href="#linear-gradient-2"/>
  </defs>
  <g id="Layer_1-2" data-name="Layer_1">
    <path class="cls-4" d="M125.08,84.89l-9.92-9.82c-2.03-2-2.03-5.25,0-7.25,2.02-2,5.3-2,7.33,0l2.59,2.56,2.59-2.56c2.02-2,5.3-2,7.33,0,2.02,2.01,2.02,5.25,0,7.25l-9.92,9.82Z"/>
    <path class="cls-10" d="M14.76,61.25h0c0,5.29-4.33,9.58-9.67,9.58h0c5.34,0,9.67,4.29,9.67,9.57h0c0-5.29,4.33-9.57,9.67-9.57h0c-5.34,0-9.67-4.29-9.67-9.58Z"/>
    <path class="cls-7" d="M150.9,52.31h0c0-5.29,4.33-9.58,9.67-9.58h0c-5.34,0-9.67-4.29-9.67-9.58h0c0,5.29-4.33,9.58-9.67,9.58h0c5.34,0,9.67,4.29,9.67,9.58Z"/>
    <path class="cls-6" d="M107.07,201.22H0s2-27.24,30.93-33.63c25.96-4.67,29.04,5.27,36.81,15.04,14.51,18.25,39.33,18.59,39.33,18.59Z"/>
    <g>
      <path class="cls-11" d="M83.47,41.37c-11.41,0-20,9.16-20,20.45v90.25c0,9.62,2.18,17.54,7,24.55l.07-116.5c0-1.11,1.9-2.56,3.01-2.56s2.91,1.55,2.91,2.66l-.2,122.38c2.31,1.86,4.98,2.77,6.2,4.24V52.64c0-1.15,1.39-2.36,2.55-2.36s2.45,1.12,2.45,2.26v136.32l5,2.43-.14-131.34c0-1.11,1.99-2.35,3.12-2.35s3.02,1.16,3.02,2.27v132.51l5,.98V61.83c0-11.3-8.59-20.46-20-20.46Z"/>
      <path class="cls-11" d="M43.97,66.51c-6.47,0-11.5,5.19-11.5,11.59v27.9c0,5.39,1.16,10.36,4,14.33l.3-42.55c0-1.17,1.15-2.56,2.32-2.56s2.37,1.32,2.37,2.48l-.07,46.34c1.32,1.36,3.99,2.73,5.07,3.55l-.05-50.16c0-1,.77-2.21,1.9-2.17,1.22.05,2.15,1.06,2.15,2.06l.14,51.8c2.32.33,3.7.27,4.86.27v-51.29c0-6.41-5.03-11.59-11.5-11.59Z"/>
      <path class="cls-11" d="M123.97,90.05c-6.47,0-11.5,5.19-11.5,11.59v65.07c2.5,0,3.75-.19,5-.54v-64.26s.63-1.92,1.7-1.92,2.3,1.92,2.3,1.92v63.17c2.4-.9,3.6-1.72,6-3.23l.08-59.66c0-1.14,1.26-2.26,2.42-2.26s2.5.92,2.5,2.06v55.58l3-14.19v-41.73c0-6.41-5.03-11.6-11.5-11.6Z"/>
    </g>
    <path class="cls-8" d="M350.48,183.22c0-1.76-1.9-4.1-4.54-4l-6.6.08-15.57.64-19.24,2.09-16.87,3.17h-.05s-147.49.05-147.49.05c-6.67-16.35-27.64-12.82-27.64-12.82v28.73s130.76,0,177.05,0c68.05-.02,60.95-.05,60.95-.15v-17.79h0Z"/>
    <path class="cls-17" d="M164.36,81.75l-7.05,1.71c-.49.12-.84.56-.84,1.06v18.07c-.97-.57-2.19-.72-3.42-.42-2.77.67-4.94,3.36-4.94,6.12,0,1.39.55,2.59,1.57,3.38.73.56,1.65.86,2.63.86.4,0,.82-.05,1.23-.15,2.78-.67,4.95-3.37,4.95-6.12v-16.39l6.77-1.51c.48-.12,1.23-1.03,1.23-1.03v-4.55c0-.69-.66-1.2-1.34-1.03"/>
    <path class="cls-5" d="M125.08,85.54l-10.51-10.41c-2.14-2.12-2.14-5.57,0-7.69,2.14-2.12,5.62-2.12,7.77,0l2.74,2.71,2.74-2.71c2.14-2.12,5.62-2.12,7.77,0,2.14,2.12,2.14,5.57,0,7.69l-10.51,10.4Z"/>
    <path class="cls-14" d="M132.96,60.77c-1.87,0-3.4-1.54-3.4-3.43,0-25.4-20.43-46.07-45.53-46.07s-45.54,20.67-45.54,46.07c0,1.9-1.52,3.43-3.39,3.43s-3.4-1.54-3.4-3.43c0-29.19,23.47-52.93,52.33-52.93s52.32,23.74,52.32,52.93c0,1.9-1.52,3.43-3.39,3.43Z"/>
    <path class="cls-9" d="M30.36,124.63l-7.05,1.71c-.49.12-.84.56-.84,1.06v18.08c-.97-.57-2.19-.72-3.42-.42-2.77.67-4.94,3.36-4.94,6.11,0,1.39.56,2.59,1.56,3.37.73.57,1.65.86,2.62.86.4,0,.81-.05,1.23-.15,2.77-.68,4.94-3.36,4.94-6.11v-16.4l6.19-1.51c.48-.12.81-.54.81-1.03v-4.54c0-.7-.66-1.2-1.34-1.04"/>
    <path class="cls-15" d="M301.91,176.99c0-1.72,1.41-3.11,3.14-3.11s3.14,1.39,3.14,3.11-1.41,3.11-3.14,3.11c-1.73,0-3.14-1.39-3.14-3.11Z"/>
    <path class="cls-2" d="M317.81,174.79c0-1.72,1.41-3.11,3.15-3.11s3.14,1.39,3.14,3.11-1.41,3.11-3.14,3.11-3.15-1.39-3.15-3.11Z"/>
    <ellipse class="cls-16" cx="336.94" cy="173.57" rx="3.15" ry="3.12"/>
    <polygon class="cls-3" points="307.62 182.49 303.91 182.91 303.43 178.47 307.14 178.05 307.62 182.49"/>
    <polygon class="cls-1" points="323.6 181.41 320.07 181.84 319.54 177.41 323.08 176.97 323.6 181.41"/>
    <polygon class="cls-12" points="339.24 180.37 335.69 180.57 335.45 176.12 339 175.91 339.24 180.37"/>
    <g>
      <path class="cls-13" d="M220.02,131.46c-1.74,0-5.76,4.48-5.76-27.98,0-24.96,4.02-40.85,4.02-44.99,0-3.36.46-5.37-1.83-5.37-6.49,0-17.92,12.87-19.47,12.87-.82,0-1.28.45-1.28-2.69,0-3.47,2.47-17.35,3.84-20.48.91-2.13,13.25-6.16,25.6-6.16,14.72,0,27.79,4.81,27.79,10.07,0,4.92-4.48,15.56-5.48,15.56-1.55,0-5.3-9.29-11.88-9.29-5.58,0-6.49,21.38-6.49,31.67,0,28.76,5.03,42.87,5.03,44.88,0,2.46-3.29,1.9-4.48,1.9h-9.6Z"/>
      <path class="cls-13" d="M303.12,38.34c1.83,0,5.39,1.79,5.39,42.08,0,32.91-8.23,52.72-27.79,52.72-17.19,0-27.7-16.23-27.7-49.69,0-35.82,3.47-45.1,4.66-45.1h12.71c.91,0,2.01,0,2.01,1.46,0,2.57-4.57,14.44-4.57,40.18s7.5,33.24,12.89,33.24c4.57,0,14.44-1.45,14.44-32.12s-4.48-39.29-4.48-41.3c0-1.79,2.65-1.46,3.47-1.46h8.96Z"/>
      <path class="cls-13" d="M310.89,87.47c0-24.29,11.15-50.81,33.37-50.81,7.95,0,20.2,4.14,20.2,16.23,0,6.49-3.66,10.19-9.42,10.19-3.75,0,1.28-10.52-10.33-10.52-13.35,0-19.01,16.68-19.01,30.67,0,21.38,11.88,30,19.84,30,14.9,0,16.18-16.34,17-16.34,1.28,0,2.01,8.95,2.01,10.07,0,16.56-10.42,26.19-23.22,26.19-20.75,0-30.44-23.06-30.44-45.66Z"/>
      <path class="cls-13" d="M393.89,51.77c-4.57,0-10.42,2.8-10.42,9.29,0,8.06,9.05,11.19,14.08,13.32,19.2,7.83,23.13,19.14,23.13,29.77,0,12.98-7.59,28.99-26.88,28.99-12.98,0-26.14-8.51-26.14-26.3,0-9.51,4.66-15.11,5.58-15.11,1.55,0,0,22.72,19.65,22.72,6.95,0,12.98-3.69,12.98-10.63,0-8.17-8.23-11.53-13.53-13.54-20.02-7.61-22.21-18.69-22.21-28.21s5.21-25.41,23.77-25.41c13.25,0,22.67,8.62,22.67,11.86s-4.75,13.32-7.31,13.32c-2.29,0-5.85-10.07-15.36-10.07Z"/>
      <path class="cls-13" d="M448.74,133.13c-18.47,0-25.69-16.23-25.69-35.59,0-28.76,13.16-60.89,30.26-60.89s30.26,32.12,30.26,60.89c0,19.36-7.22,35.59-25.69,35.59h-9.14ZM468.76,95.08c0-24.73-9.32-40.29-15.45-40.29s-15.45,15.56-15.45,40.29c0,13.09,5.76,18.13,15.45,18.13s15.45-5.04,15.45-18.13Z"/>
      <path class="cls-13" d="M528.54,131.46c-6.31,0-.64-6.94-14.9-42.31-1.19-3.02-9.23-21.82-12.16-21.82-2.29,0-1.65,12.2-1.65,14.44,0,31.56,3.75,42.98,3.75,48.69,0,1.46-1.74,1.01-2.56,1.01h-8.5c-2.29,0-5.03,2.13-5.03-39.84,0-55.29,4.75-53.28,6.31-53.28h7.22c3.47,0,10.42,8.95,27.52,47.68.27.56.73,2.01,1.55,2.01.92,0,.73-4.81.73-6.38,0-20.93-4.66-39.51-4.66-42.08,0-1.57,2.01-1.23,3.75-1.23h6.95c2.01,0,6.31-2.01,6.31,53.28,0,41.97-2.74,39.84-5.03,39.84h-9.6Z"/>
      <path class="cls-13" d="M576.8,131.46c-4.84.22-3.38-3.69-3.84-26.41,0-15,5.03-66.71,7.68-66.71h14.54c.64,0,1.74.22,1.74,2.24,0,2.46-10.6,26.53-10.6,57.42,0,15.45,5.49,19.14,10.51,19.14,8.41,0,13.53-9.51,15.81-9.51,1.74,0,5.3,21.6,5.3,22.16,0,2.24-2.83,1.68-3.93,1.68h-37.21Z"/>
      <path class="cls-13" d="M643.81,133.13c-18.47,0-25.69-16.23-25.69-35.59,0-28.76,13.16-60.89,30.26-60.89s30.26,32.12,30.26,60.89c0,19.36-7.22,35.59-25.69,35.59h-9.14ZM663.83,95.08c0-24.73-9.32-40.29-15.45-40.29s-15.45,15.56-15.45,40.29c0,13.09,5.76,18.13,15.45,18.13s15.45-5.04,15.45-18.13Z"/>
      <path class="cls-13" d="M730.01,38.34c2.1,0,5.3,8.95,5.3,29.44,0,38.61-22.58,66.37-28.06,66.37-1.83,0-27.7-17.68-27.7-68.61,0-26.64,3.29-27.2,4.94-27.2h10.42c1.1,0,4.3-.34,4.3,1.79,0,2.91-4.84,9.62-4.84,33.24,0,20.03,10.7,36.49,12.89,36.49,4.75,0,14.72-16.45,14.72-36.49,0-23.62-6.03-30.33-6.03-33.24,0-2.13,2.38-1.79,3.47-1.79h10.6Z"/>
      <path class="cls-13" d="M742.35,131.46c-4.84.22-3.38-3.69-3.84-26.41,0-15,5.03-66.71,7.68-66.71h36.02c1.1,0,4.39-.34,4.39,1.9,0,.9-5.85,16.56-7.04,16.56-1.55,0-4.3-5.26-13.25-5.26-6.31,0-12.98,4.59-12.98,15.33,0,2.35.37,6.38,2.93,6.38,2.92,0,9.42-5.26,17.09-5.26,1.1,0,4.11.45,4.11,2.35,0,.11-5.12,18.35-6.22,18.35-.91,0-4.39-2.24-7.95-2.24-4.66,0-11.43,4.14-11.43,15.22,0,8.95,3.84,15.45,11.52,15.45,9.05,0,14.63-7.39,16.82-7.39,1.37,0,7.5,18.92,7.5,20.03,0,2.13-2.29,1.68-3.38,1.68h-41.96Z"/>
      <path class="cls-13" d="M814.84,51.77c-4.57,0-10.42,2.8-10.42,9.29,0,8.06,9.05,11.19,14.08,13.32,19.2,7.83,23.13,19.14,23.13,29.77,0,12.98-7.59,28.99-26.88,28.99-12.98,0-26.14-8.51-26.14-26.3,0-9.51,4.66-15.11,5.58-15.11,1.55,0,0,22.72,19.65,22.72,6.95,0,12.98-3.69,12.98-10.63,0-8.17-8.23-11.53-13.53-13.54-20.02-7.61-22.21-18.69-22.21-28.21s5.21-25.41,23.77-25.41c13.25,0,22.67,8.62,22.67,11.86s-4.75,13.32-7.31,13.32c-2.29,0-5.85-10.07-15.36-10.07Z"/>
      <path class="cls-13" d="M874.9,131.46c-2.29,0-5.03,2.13-5.03-39.84,0-55.29,4.75-53.28,6.31-53.28h8.41c3.56,0,4.84,0,9.32,7.5,8.59,14.44,9.14,22.61,10.97,22.61,1.37,0,1.92-8.17,11.61-22.61,5.12-7.61,6.49-7.5,10.06-7.5h7.13c1.55,0,6.31-2.01,6.31,53.28,0,41.97-2.74,39.84-5.03,39.84h-11.7c-1.1,0-3.29.34-3.29-1.68,0-1.57,5.21-21.71,5.21-50.93,0-2.35.27-16.12-2.74-16.12-2.65,0-6.12,11.08-7.04,13.77-7.68,22.94-4.57,33.46-10.7,33.46-7.68,0-4.66-10.52-12.8-33.46-.91-2.46-3.93-13.77-6.76-13.77-3.02,0-2.92,13.77-2.92,16.12,0,29.21,5.76,49.36,5.76,50.93,0,2.01-2.19,1.68-3.29,1.68h-9.78Z"/>
      <path class="cls-13" d="M994.74,38.34c1.83,0,5.39,1.79,5.39,42.08,0,32.91-8.23,52.72-27.79,52.72-17.19,0-27.7-16.23-27.7-49.69,0-35.82,3.47-45.1,4.66-45.1h12.71c.91,0,2.01,0,2.01,1.46,0,2.57-4.57,14.44-4.57,40.18s7.5,33.24,12.89,33.24c4.57,0,14.44-1.45,14.44-32.12s-4.48-39.29-4.48-41.3c0-1.79,2.65-1.46,3.47-1.46h8.96Z"/>
      <path class="cls-13" d="M1029.47,51.77c-4.57,0-10.42,2.8-10.42,9.29,0,8.06,9.05,11.19,14.08,13.32,19.2,7.83,23.13,19.14,23.13,29.77,0,12.98-7.59,28.99-26.88,28.99-12.98,0-26.14-8.51-26.14-26.3,0-9.51,4.66-15.11,5.58-15.11,1.55,0,0,22.72,19.65,22.72,6.95,0,12.98-3.69,12.98-10.63,0-8.17-8.23-11.53-13.53-13.54-20.02-7.61-22.21-18.69-22.21-28.21s5.21-25.41,23.77-25.41c13.25,0,22.67,8.62,22.67,11.86s-4.75,13.32-7.31,13.32c-2.29,0-5.85-10.07-15.36-10.07Z"/>
      <path class="cls-13" d="M1067.04,131.46c-2.29,0-5.03,2.13-5.03-39.84,0-55.29,4.75-53.28,6.31-53.28h9.87c1.19,0,3.47-.34,3.47,1.79,0,1.12-4.85,19.81-4.85,41.41,0,28.65,4.57,47.12,4.57,48.69,0,1.12-.55,1.23-1.37,1.23h-12.98Z"/>
      <path class="cls-13" d="M1085.6,87.47c0-24.29,11.15-50.81,33.37-50.81,7.95,0,20.2,4.14,20.2,16.23,0,6.49-3.66,10.19-9.42,10.19-3.75,0,1.28-10.52-10.33-10.52-13.35,0-19.01,16.68-19.01,30.67,0,21.38,11.88,30,19.84,30,14.9,0,16.18-16.34,17-16.34,1.28,0,2.01,8.95,2.01,10.07,0,16.56-10.42,26.19-23.22,26.19-20.75,0-30.44-23.06-30.44-45.66Z"/>
    </g>
    <text/>
  </g>
</svg>